<!DOCTYPE svg PUBLIC "-//W3C//DTD SVG 1.1//EN" "http://www.w3.org/Graphics/SVG/1.1/DTD/svg11.dtd">
<!-- Uploaded to: SVG Repo, www.svgrepo.com, Transformed by: SVG Repo Mixer Tools -->
<svg version="1.1" id="Layer_1" xmlns="http://www.w3.org/2000/svg" xmlns:xlink="http://www.w3.org/1999/xlink" viewBox="0 0 512 512" xml:space="preserve" width="64px" height="64px" fill="#000000">
<g id="SVGRepo_bgCarrier" stroke-width="0"/>
<g id="SVGRepo_tracerCarrier" stroke-linecap="round" stroke-linejoin="round"/>
<g id="SVGRepo_iconCarrier"> <rect x="373.57" y="81.012" transform="matrix(-0.7071 -0.7071 0.7071 -0.7071 614.1097 483.7373)" style="fill:#FF738D;" width="67.34" height="67.34"/> <rect x="213.704" y="11.621" style="fill:#6D529F;" width="84.58" height="84.58"/> <circle style="fill:#E3A9ED;" cx="255.994" cy="288.046" r="212.333"/> <path d="M433.855,152.117l29.215-29.215c4.538-4.538,4.538-11.897,0-16.436L415.452,58.85c-4.539-4.537-11.896-4.537-16.436,0 l-33.763,33.763c-17.182-9.643-35.755-17.084-55.34-21.943V23.243h10.962c6.417,0,11.621-5.204,11.621-11.621S327.293,0,320.876,0 h-22.584h-84.586h-22.583c-6.417,0-11.621,5.204-11.621,11.621s5.204,11.621,11.621,11.621h10.962v47.427 C104.556,94.866,32.046,183.141,32.046,288.046C32.046,411.535,132.511,512,256,512s223.954-100.465,223.954-223.954 C479.954,236.967,462.752,189.838,433.855,152.117z M407.235,83.504l31.182,31.181l-19.676,19.676 c-10.13-10.721-21.298-20.45-33.353-29.011L407.235,83.504z M225.329,23.243h61.343v42.96c-10.032-1.381-20.268-2.109-30.672-2.109 c-10.405,0-20.641,0.73-30.672,2.109v-42.96H225.329z M256,488.757c-110.672,0-200.712-90.04-200.712-200.712 S145.328,87.335,256,87.335s200.712,90.038,200.712,200.71S366.673,488.757,256,488.757z"/> <path style="fill:#6D529F;" d="M256,129.113c-87.777,0-158.934,71.157-158.934,158.934S168.223,446.981,256,446.981 s158.934-71.157,158.934-158.934S343.777,129.113,256,129.113z M256,328.484c-22.333,0-40.438-18.105-40.438-40.438 c0-22.333,18.105-40.438,40.438-40.438s40.438,18.105,40.438,40.438S278.333,328.484,256,328.484z"/> <path style="fill:#FF738D;" d="M257.184,129.128V247.64c21.784,0.628,39.253,18.471,39.253,40.407c0,0.753-0.024,1.501-0.065,2.245 h118.534c0.01-0.748,0.028-1.495,0.028-2.245C414.934,200.665,344.415,129.766,257.184,129.128z"/> <path d="M345.031,211.816c-0.754,0-1.522-0.08-2.265-0.231c-0.745-0.139-1.477-0.372-2.173-0.662 c-0.698-0.291-1.372-0.652-2.01-1.069c-0.628-0.418-1.232-0.906-1.766-1.441c-2.162-2.162-3.406-5.16-3.406-8.216 c0-0.754,0.081-1.522,0.232-2.265c0.151-0.745,0.372-1.477,0.662-2.186c0.291-0.697,0.651-1.371,1.069-1.999 c0.418-0.639,0.906-1.232,1.441-1.766c0.535-0.535,1.138-1.023,1.766-1.441c0.639-0.418,1.313-0.779,2.01-1.069 c0.697-0.302,1.428-0.523,2.173-0.674c1.499-0.302,3.045-0.302,4.543,0c0.745,0.151,1.477,0.372,2.173,0.674 c0.698,0.291,1.372,0.651,2,1.069c0.639,0.418,1.232,0.906,1.777,1.441c0.535,0.535,1.011,1.127,1.441,1.766 c0.418,0.628,0.779,1.302,1.069,1.999c0.291,0.709,0.511,1.441,0.662,2.186c0.151,0.744,0.22,1.511,0.22,2.265 c0,3.056-1.232,6.055-3.393,8.216c-0.546,0.535-1.138,1.023-1.777,1.441c-0.628,0.417-1.302,0.779-2,1.069 c-0.697,0.291-1.428,0.523-2.173,0.662C346.553,211.734,345.798,211.816,345.031,211.816z"/> <path d="M426.501,283.701c-0.006-0.249-0.02-0.497-0.027-0.746c-0.036-1.211-0.078-2.421-0.138-3.628 c-0.007-0.136-0.017-0.27-0.024-0.406c-2.198-41.912-19.501-81.057-49.294-111.053c-27.042-27.224-61.686-44.217-99.172-48.984 c-0.486-0.063-0.976-0.114-1.463-0.172c-0.848-0.1-1.696-0.203-2.547-0.292c-0.989-0.103-1.983-0.191-2.976-0.275 c-0.364-0.031-0.726-0.069-1.09-0.098c-1.228-0.098-2.46-0.179-3.696-0.252c-0.142-0.008-0.284-0.019-0.425-0.027 c-1.32-0.074-2.645-0.13-3.973-0.174c-0.073-0.002-0.145-0.006-0.217-0.008c-1.325-0.042-2.654-0.066-3.986-0.078 c-0.067,0-0.134-0.003-0.201-0.003c-0.008,0-0.016,0.001-0.024,0.001c-0.415-0.002-0.829-0.016-1.245-0.016 c-94.044,0-170.555,76.511-170.555,170.555S161.957,458.6,256.001,458.6c93.233,0,169.221-75.2,170.524-168.13 c0-0.007,0.001-0.014,0.001-0.021l0.01-0.647c0.01-0.586,0.02-1.17,0.02-1.758C426.555,286.594,426.536,285.146,426.501,283.701z M256,316.862c-15.89,0-28.816-12.926-28.816-28.816S240.11,259.23,256,259.23c0.256,0,0.509,0.013,0.764,0.02 c0.029,0.001,0.057,0.006,0.086,0.007c0.977,0.028,1.942,0.103,2.89,0.224c0.006,0,0.012,0.001,0.016,0.001 c0.408,0.052,0.811,0.116,1.213,0.185c0.137,0.024,0.274,0.048,0.411,0.073c0.259,0.048,0.515,0.101,0.771,0.156 c0.302,0.066,0.605,0.134,0.904,0.209c0.081,0.02,0.163,0.041,0.243,0.062c1.366,0.358,2.691,0.812,3.971,1.357l-15.457,15.456 c-4.538,4.538-4.538,11.897,0,16.436c2.27,2.268,5.244,3.404,8.217,3.404s5.948-1.135,8.217-3.404l14.932-14.932 c1.056,2.994,1.636,6.209,1.636,9.56c0,0.54-0.02,1.076-0.049,1.61c0,0.006,0,0.013,0,0.02 C283.92,304.809,271.344,316.862,256,316.862z M307.231,278.671c-1.138-6.358-3.414-12.302-6.617-17.619l26.906-26.906 c4.538-4.538,4.538-11.897,0-16.436c-4.538-4.536-11.894-4.538-16.436,0l-26.638,26.638c-4.725-3.061-9.99-5.381-15.641-6.787 v-96.265c69.662,6.057,125.723,61.063,133.564,130.127c0.027,0.238,0.056,0.476,0.083,0.715c0.086,0.79,0.16,1.583,0.234,2.377 c0.038,0.428,0.079,0.854,0.114,1.283c0.057,0.681,0.107,1.364,0.153,2.048c0.019,0.274,0.035,0.549,0.052,0.823h-95.772V278.671z M256,435.359c-81.228,0-147.313-66.083-147.313-147.313c0-77.719,60.499-141.565,136.875-146.938v95.932 c-23.72,4.847-41.621,25.876-41.621,51.007c0,24.709,17.311,45.438,40.438,50.735v28.716c0,6.417,5.204,11.621,11.621,11.621 c6.417,0,11.621-5.204,11.621-11.621v-28.716c18.632-4.267,33.477-18.551,38.547-36.867h96.487 C395.643,376.663,332.552,435.359,256,435.359z"/> <path d="M256,415.514c-0.755,0-1.524-0.081-2.266-0.232c-0.744-0.139-1.476-0.371-2.173-0.661c-0.709-0.291-1.382-0.652-2.009-1.07 c-0.64-0.417-1.233-0.905-1.768-1.44c-0.535-0.535-1.023-1.128-1.441-1.768c-0.43-0.628-0.779-1.302-1.069-2.009 c-0.291-0.698-0.523-1.429-0.674-2.173c-0.151-0.745-0.22-1.511-0.22-2.266c0-0.755,0.07-1.522,0.22-2.266 c0.151-0.744,0.383-1.476,0.674-2.185c0.291-0.697,0.639-1.371,1.069-1.999c0.418-0.639,0.906-1.233,1.441-1.768 c0.535-0.535,1.127-1.023,1.768-1.453c0.628-0.417,1.3-0.779,2.009-1.069c0.698-0.291,1.429-0.51,2.173-0.661 c3.777-0.755,7.786,0.475,10.482,3.183c0.536,0.535,1.024,1.128,1.441,1.768c0.418,0.628,0.779,1.302,1.069,1.999 c0.291,0.709,0.523,1.441,0.662,2.185c0.151,0.745,0.232,1.511,0.232,2.266c0,0.755-0.081,1.522-0.232,2.266 c-0.139,0.744-0.372,1.476-0.662,2.173c-0.291,0.708-0.651,1.382-1.069,2.009c-0.417,0.639-0.905,1.233-1.441,1.768 C262.055,414.271,259.056,415.514,256,415.514z"/> </g>
</svg>